<?xml version="1.0" encoding="UTF-8" standalone="no"?>
<svg width="45px" height="45px" viewBox="0 0 45 45" version="1.1" xmlns="http://www.w3.org/2000/svg" xmlns:xlink="http://www.w3.org/1999/xlink" xmlns:sketch="http://www.bohemiancoding.com/sketch/ns">
    <title>Slice 1</title>
    <description>Created with Sketch (http://www.bohemiancoding.com/sketch)</description>
    <defs></defs>
    <g id="Page 1" fill="#ADADAD" fill-rule="evenodd">
        <g id="Slice 1" fill="#ADADAD">
            <g id="Page 1" fill="#ADADAD">
                <path d="M28.6194899,30.4042628 C26.9518748,31.5307051 25.0041279,32.0972708 23.0102702,32.0698456 C22.7474735,32.0661666 22.4853701,32.0547952 22.2263871,32.0320523 C22.1209911,32.0226876 22.0145549,32.0056304 21.9084655,31.9922522 C21.7056474,31.967837 21.5028294,31.9410807 21.3027849,31.9029529 C21.1807474,31.88021 21.0618301,31.8514469 20.941526,31.8233527 C20.746682,31.7795392 20.5535715,31.7357257 20.363928,31.6805407 C20.2720531,31.6541188 20.1832985,31.6216767 20.0931572,31.5932481 C19.8733509,31.5230127 19.6559716,31.4487638 19.4441394,31.3631435 C19.3956017,31.3440796 19.349491,31.3233434 19.3013,31.3022728 C19.0530646,31.1975886 18.8089895,31.0858808 18.5718484,30.9617982 C18.5611008,30.9564469 18.5510465,30.9504268 18.5402989,30.944741 C17.7376941,30.5213218 17.0040821,29.9912116 16.361305,29.371802 C16.3505573,29.360765 16.3405031,29.3493936 16.3297555,29.3393599 C16.1310978,29.1457109 15.9400675,28.9420281 15.7587447,28.7316563 C15.7199145,28.6878428 15.6842047,28.638678 15.6457213,28.5928577 C14.3352046,27.0125608 13.5454276,25.0121889 13.5454276,22.8348911 L16.0662653,22.8348911 L12.0327855,17 L8,22.8355595 L10.5208377,22.8355595 C10.5208377,25.3944701 11.3477113,27.7654172 12.752183,29.7259886 C12.7698646,29.7547517 12.7816523,29.7828459 12.8014141,29.8096022 C12.9473737,30.0109438 13.1085881,30.1952282 13.2639086,30.3851982 C13.3228471,30.4574404 13.3762386,30.5316893 13.4372573,30.6015902 C13.6678112,30.8698226 13.9118862,31.1243424 14.1622019,31.3711698 C14.1854306,31.3939127 14.2086594,31.4186623 14.2332749,31.4414052 C15.0760966,32.256805 16.0270879,32.9421021 17.0640602,33.4892695 C17.0924894,33.5046544 17.1191851,33.5217116 17.1476143,33.5350898 C17.447161,33.6906111 17.7526015,33.8317508 18.0656694,33.9625225 C18.1426363,33.9949646 18.2182163,34.0307512 18.2958766,34.0631933 C18.5638738,34.1695497 18.8360313,34.2628625 19.1113092,34.3498207 C19.2413207,34.3939686 19.3713323,34.4374477 19.5030774,34.4752411 C19.7429921,34.5454765 19.989494,34.6023337 20.2377294,34.6595254 C20.4020641,34.6956465 20.5653586,34.735781 20.7328135,34.7678887 C20.8018063,34.7812668 20.8676788,34.8003307 20.9370183,34.8113677 C21.1710392,34.8515022 21.4054067,34.8742451 21.6387341,34.9010015 C21.723675,34.9107007 21.8058423,34.9257511 21.8918233,34.9334436 C22.3109806,34.9732436 22.7308314,35 23.1489486,35 C25.7120835,35 28.2110792,34.2434641 30.3554032,32.7942734 C31.038744,32.3323918 31.206199,31.422676 30.7253295,30.7634663 C30.2461925,30.1019162 29.3010958,29.9423823 28.6194899,30.4042628 L28.6194899,30.4042628 L28.6194899,30.4042628 Z M28.6194899,30.4042628" id="Shape" fill="#ADADAD"></path>
                <path d="M34.4807812,22.1609594 C34.4787007,19.6103736 33.6575705,17.2418294 32.2590832,15.2842166 C32.2393178,15.251757 32.2254474,15.2176243 32.2018676,15.1854994 C32.0284871,14.9469048 31.8395024,14.7237035 31.6501708,14.4991635 C31.6286716,14.4727274 31.6089063,14.4439488 31.5853265,14.4175127 C30.3068185,12.9200224 28.6995813,11.762521 26.8797792,11.0055773 C26.8288054,10.9848299 26.7792185,10.9620748 26.7299785,10.9409928 C26.4386992,10.8252092 26.141525,10.7224763 25.8419234,10.6271054 C25.7333872,10.5919688 25.6272783,10.5548243 25.5187421,10.5226994 C25.2565908,10.4467373 24.9927056,10.3858338 24.7246593,10.3252649 C24.5769391,10.29314 24.4312995,10.2566648 24.2814987,10.2282209 C24.2090257,10.2151701 24.1379397,10.1937535 24.0654666,10.1807027 C23.8664258,10.1472393 23.6673849,10.13285 23.4662635,10.1084216 C23.3285994,10.0913553 23.1923223,10.0702733 23.0546581,10.0568879 C22.7193402,10.0264361 22.3864496,10.0133854 22.053559,10.0083659 C21.9928758,10.0076966 21.9346199,10 21.8746303,10 C21.8628404,10 21.8527843,10.0026771 21.8420347,10.0040156 C19.2825915,10.0056888 16.7869522,10.7509203 14.6450096,12.1995538 C13.9605033,12.6613497 13.7944047,13.5722254 14.274322,14.2324595 C14.7525055,14.8926938 15.6960423,15.0533185 16.3805485,14.5905187 C18.0349455,13.4728388 19.9664044,12.905633 21.9457165,12.9237033 C22.229367,12.9253765 22.5095499,12.9387618 22.786612,12.9645287 C22.8712217,12.9728946 22.9558314,12.9852761 23.0407878,12.9959844 C23.2693033,13.0224205 23.4957383,13.0528723 23.7162783,13.0947016 C23.8144117,13.1137758 23.911158,13.1385388 24.0075576,13.1592861 C24.2263638,13.2071389 24.4448233,13.258338 24.6577345,13.3209147 C24.7243127,13.3399888 24.7915843,13.3644172 24.8581624,13.3854992 C25.1026289,13.4624651 25.3429344,13.5454545 25.5773448,13.6404908 C25.6009245,13.6498606 25.6245043,13.6615728 25.648084,13.6706079 C27.0583612,14.2562187 28.2956047,15.1570552 29.2602938,16.2844395 C29.2665355,16.2911322 29.2720836,16.2994981 29.2783253,16.3058561 C30.6352013,17.901729 31.4528638,19.9409928 31.4545977,22.1609594 L28.9315643,22.1609594 L32.9675161,28 L37,22.1609594 L34.4807812,22.1609594 L34.4807812,22.1609594 Z M34.4807812,22.1609594" id="Shape" fill="#ADADAD"></path>
                <path d="M22.5,45 C10.0735925,45 0,34.9264075 0,22.5 C0,10.0735925 10.0735925,0 22.5,0 C34.9264075,0 45,10.0735925 45,22.5 C45,34.9264075 34.9264075,45 22.5,45 L22.5,45 Z M22.508598,42.0058594 C33.3157526,42.0058594 42.0766814,33.2741009 42.0766814,22.5029297 C42.0766814,11.7317585 33.3157526,3 22.508598,3 C11.7014434,3 2.94051461,11.7317585 2.94051461,22.5029297 C2.94051461,33.2741009 11.7014434,42.0058594 22.508598,42.0058594 L22.508598,42.0058594 Z M22.508598,42.0058594" id="Oval 1 copy" fill="#ADADAD"></path>
            </g>
        </g>
    </g>
</svg>